<svg xmlns="http://www.w3.org/2000/svg" width="32" height="32" fill="none"><defs><style>.cls-1{fill:#1976d2;}</style></defs><path class="cls-1" d="M17.6,13a.19.19,0,0,0,0-.27l0,0h-.1L14.2,11H14L9.2,15.8a.19.19,0,0,0,0,.27l0,0L14,20.9h.2l3.4-1.8c.1,0,.1-.1.1-.2v-.1L14.9,16a.19.19,0,0,1,0-.27l0,0Z" transform="translate(0)"/><path class="cls-1" d="M32,15.9h0a48.3,48.3,0,0,1-6.1-7.5c-.44-.62-.9-1.22-1.4-1.8-.1-.1-.2-.1-.3-.2a.46.46,0,0,0-.5.4h0v6.3c0,.1.1.1.1.2l2.4,2.4a.19.19,0,0,1,0,.27l0,0h0l-2,2a2.11,2.11,0,0,0-.6,1,10,10,0,0,1-9.5,6.8,12.28,12.28,0,0,1-2.7-.3,9.93,9.93,0,0,1,.1-19.2A11.4,11.4,0,0,1,14.1,6a14.78,14.78,0,0,1,2.1.2c.2,0,.4.1.6.1a2.9,2.9,0,0,0,2.9-2.9.52.52,0,0,0-.2-.4,14.12,14.12,0,0,0-5.4-1.1,13.56,13.56,0,0,0-4,.6A13.46,13.46,0,0,0,4.4,5.7H4.3c-.2,0-.3-.1-.3-.2A3.59,3.59,0,0,0,.42,1.9h0a.44.44,0,0,0-.4.4H0V15.6a14,14,0,0,0,25.8,8,46.19,46.19,0,0,1,5.9-7.4l.1-.1Z" transform="translate(0)"/></svg>